<?xml version="1.0" encoding="UTF-8"?>
<!DOCTYPE svg PUBLIC "-//W3C//DTD SVG 1.1//EN" "http://www.w3.org/Graphics/SVG/1.1/DTD/svg11.dtd">
<svg xmlns="http://www.w3.org/2000/svg" version="1.1" width="414px" height="261px" style="shape-rendering:geometricPrecision; text-rendering:geometricPrecision; image-rendering:optimizeQuality; fill-rule:evenodd; clip-rule:evenodd" xmlns:xlink="http://www.w3.org/1999/xlink">
<g><path style="opacity:0.931" fill="#fefffe" d="M 92.5,1.5 C 95.9391,1.58874 98.7724,2.92208 101,5.5C 101.333,17.5 101.667,29.5 102,41.5C 108.635,35.0613 116.635,31.728 126,31.5C 141.865,31.7431 151.865,39.4097 156,54.5C 156.667,72.1667 156.667,89.8333 156,107.5C 155.692,108.308 155.192,108.975 154.5,109.5C 150.142,111.313 146.309,110.647 143,107.5C 142.945,89.781 142.278,72.1143 141,54.5C 136.936,47.7991 130.936,44.4657 123,44.5C 112.884,44.7104 105.884,49.3771 102,58.5C 101.667,74.8333 101.333,91.1667 101,107.5C 97.1334,111.086 92.9667,111.42 88.5,108.5C 87.3405,74.2084 87.1738,39.8751 88,5.5C 88.9066,3.39092 90.4066,2.05759 92.5,1.5 Z"/></g>
<g><path style="opacity:0.893" fill="#fefffe" d="M 182.5,1.5 C 189.968,2.13167 193.135,6.13167 192,13.5C 189.103,18.1549 184.937,19.6549 179.5,18C 174.701,14.9289 173.535,10.7622 176,5.5C 177.792,3.37201 179.958,2.03867 182.5,1.5 Z"/></g>
<g><path style="opacity:0.928" fill="#fefffe" d="M 216.5,1.5 C 220.21,1.22465 223.043,2.55799 225,5.5C 225.667,39.5 225.667,73.5 225,107.5C 223.537,109.885 221.371,110.885 218.5,110.5C 215.675,110.881 213.509,109.881 212,107.5C 211.333,73.5 211.333,39.5 212,5.5C 212.907,3.39092 214.407,2.05759 216.5,1.5 Z"/></g>
<g><path style="opacity:0.928" fill="#fefffe" d="M 250.5,1.5 C 254.21,1.22465 257.043,2.55799 259,5.5C 259.667,39.5 259.667,73.5 259,107.5C 257.537,109.885 255.371,110.885 252.5,110.5C 249.675,110.881 247.509,109.881 246,107.5C 245.333,73.5 245.333,39.5 246,5.5C 246.907,3.39092 248.407,2.05759 250.5,1.5 Z"/></g>
<g><path style="opacity:0.929" fill="#fefffe" d="M -0.5,79.5 C -0.5,74.5 -0.5,69.5 -0.5,64.5C 8.54221,36.307 27.5422,26.4737 56.5,35C 61.6133,37.3057 66.1133,40.4723 70,44.5C 71.8333,52.6667 68.6667,55.8333 60.5,54C 47.1015,41.5448 33.6015,41.3781 20,53.5C 9.79096,69.6408 11.9576,83.8074 26.5,96C 39.6232,102.218 50.9566,99.8849 60.5,89C 68.8273,86.9974 72.3273,90.164 71,98.5C 59.4408,110.182 45.6074,114.349 29.5,111C 13.0567,106.598 3.05671,96.0981 -0.5,79.5 Z"/></g>
<g><path style="opacity:0.929" fill="#fefffe" d="M 179.5,33.5 C 182.187,33.3359 184.854,33.5026 187.5,34C 188.667,34.5 189.5,35.3333 190,36.5C 190.667,60.1667 190.667,83.8333 190,107.5C 188.537,109.885 186.371,110.885 183.5,110.5C 180.675,110.881 178.509,109.881 177,107.5C 176.333,83.8333 176.333,60.1667 177,36.5C 178.045,35.6266 178.878,34.6266 179.5,33.5 Z"/></g>
<g><path style="opacity:0.996" fill="#e6212f" d="M 405.5,15.5 C 408.474,21.1105 411.141,26.7772 413.5,32.5C 413.5,36.1667 413.5,39.8333 413.5,43.5C 410.522,46.7516 407.022,49.4182 403,51.5C 402.617,50.944 402.117,50.6107 401.5,50.5C 402.89,42.6741 402.223,35.0074 399.5,27.5C 401.119,25.8814 402.785,24.2147 404.5,22.5C 405.209,20.0002 405.542,17.6669 405.5,15.5 Z"/></g>
<g><path style="opacity:0.964" fill="#f22c21" d="M 359.5,-0.5 C 366.833,-0.5 374.167,-0.5 381.5,-0.5C 391.028,2.46504 399.028,7.79838 405.5,15.5C 405.542,17.6669 405.209,20.0002 404.5,22.5C 402.785,24.2147 401.119,25.8814 399.5,27.5C 396.873,23.7922 393.873,20.2922 390.5,17C 377.194,8.16661 363.527,8.16661 349.5,17C 346.628,19.5366 344.128,22.3699 342,25.5C 334.546,39.5768 326.713,53.4101 318.5,67C 327.634,66.8596 336.301,68.6929 344.5,72.5C 345.031,74.6237 346.365,76.1237 348.5,77C 347.743,78.5122 346.743,79.8455 345.5,81C 342.964,81.1862 340.631,81.6862 338.5,82.5C 332.505,80.472 326.338,79.1387 320,78.5C 310.124,78.0263 306.791,82.3596 310,91.5C 312.687,96.2177 315.854,100.551 319.5,104.5C 320.426,107.095 322.093,109.095 324.5,110.5C 322.712,112.576 321.046,114.743 319.5,117C 318.552,117.483 317.552,117.649 316.5,117.5C 316.5,116.167 316.5,114.833 316.5,113.5C 315.209,113.263 314.209,113.596 313.5,114.5C 300.877,105.598 295.71,93.598 298,78.5C 309.408,58.0174 321.075,37.684 333,17.5C 333.333,17.8333 333.667,18.1667 334,18.5C 340.214,9.13853 348.714,2.8052 359.5,-0.5 Z"/></g>
<g><path style="opacity:0.997" fill="#d8233d" d="M 413.5,43.5 C 413.5,46.8333 413.5,50.1667 413.5,53.5C 411.144,61.1886 407.477,68.1886 402.5,74.5C 400.952,74.8212 400.285,75.8212 400.5,77.5C 399.448,77.3505 398.448,77.5172 397.5,78C 392.346,82.1536 387.513,86.6536 383,91.5C 382.376,89.5355 382.876,87.8689 384.5,86.5C 384.137,85.8165 383.804,85.1499 383.5,84.5C 388.384,74.7876 393.884,65.4543 400,56.5C 400.505,54.4817 401.005,52.4817 401.5,50.5C 402.117,50.6107 402.617,50.944 403,51.5C 407.022,49.4182 410.522,46.7516 413.5,43.5 Z"/></g>
<g><path style="opacity:0.932" fill="#e42031" d="M 344.5,72.5 C 350.579,74.9424 356.246,78.1091 361.5,82C 362.252,82.6708 362.586,83.5041 362.5,84.5C 364.767,88.1228 367.101,91.7895 369.5,95.5C 367.422,100.502 364.589,101.169 361,97.5C 360.517,96.552 360.351,95.552 360.5,94.5C 359.167,94.5 357.833,94.5 356.5,94.5C 356.5,93.1667 356.5,91.8333 356.5,90.5C 355.167,90.5 353.833,90.5 352.5,90.5C 347.825,87.8299 343.159,85.1633 338.5,82.5C 340.631,81.6862 342.964,81.1862 345.5,81C 346.743,79.8455 347.743,78.5122 348.5,77C 346.365,76.1237 345.031,74.6237 344.5,72.5 Z"/></g>
<g><path style="opacity:0.997" fill="#d42548" d="M 402.5,74.5 C 396.015,86.8038 389.015,98.8038 381.5,110.5C 378.298,113.842 375.298,117.509 372.5,121.5C 371.575,120.359 370.741,120.359 370,121.5C 370.898,124.958 369.398,126.625 365.5,126.5C 365.657,127.873 365.49,129.207 365,130.5C 363.951,129.483 362.784,129.316 361.5,130C 358.966,133.868 355.799,137.034 352,139.5C 351.445,142.542 349.612,144.375 346.5,145C 332.656,158.544 319.156,172.378 306,186.5C 305.667,186.167 305.333,185.833 305,185.5C 304.692,186.308 304.192,186.975 303.5,187.5C 302.14,186.82 300.807,186.153 299.5,185.5C 297.455,184.077 296.455,182.077 296.5,179.5C 297.237,177.695 298.237,176.029 299.5,174.5C 303.301,172.533 306.301,169.7 308.5,166C 311.667,165.5 313.5,163.667 314,160.5C 315.319,158.513 317.152,157.346 319.5,157C 321.041,155.421 322.208,153.587 323,151.5C 333.643,140.525 344.643,129.858 356,119.5C 357.496,117.55 357.663,115.55 356.5,113.5C 353.967,112.696 351.967,111.363 350.5,109.5C 355.843,110.18 359.843,112.846 362.5,117.5C 364.683,116.308 366.016,114.475 366.5,112C 365.867,108.633 364.7,105.467 363,102.5C 358.925,98.9301 355.425,94.9301 352.5,90.5C 353.833,90.5 355.167,90.5 356.5,90.5C 356.5,91.8333 356.5,93.1667 356.5,94.5C 357.833,94.5 359.167,94.5 360.5,94.5C 360.351,95.552 360.517,96.552 361,97.5C 364.589,101.169 367.422,100.502 369.5,95.5C 367.101,91.7895 364.767,88.1228 362.5,84.5C 367.163,88.1065 371.163,92.4398 374.5,97.5C 377.757,93.312 380.757,88.9786 383.5,84.5C 383.804,85.1499 384.137,85.8165 384.5,86.5C 382.876,87.8689 382.376,89.5355 383,91.5C 387.513,86.6536 392.346,82.1536 397.5,78C 398.448,77.5172 399.448,77.3505 400.5,77.5C 400.285,75.8212 400.952,74.8212 402.5,74.5 Z"/></g>
<g><path style="opacity:1" fill="#e92131" d="M 319.5,104.5 C 321.681,106.171 324.015,107.671 326.5,109C 334.202,108.55 341.869,108.717 349.5,109.5C 349.5,110.5 349.5,111.5 349.5,112.5C 347.105,111.637 344.771,111.637 342.5,112.5C 340.657,116.174 337.99,119.008 334.5,121C 321.54,134.961 308.207,148.627 294.5,162C 292.559,163.903 290.226,164.736 287.5,164.5C 284.91,161.236 283.577,157.402 283.5,153C 285.024,142.125 290.024,133.125 298.5,126C 303.959,122.622 308.959,118.789 313.5,114.5C 314.209,113.596 315.209,113.263 316.5,113.5C 316.5,114.833 316.5,116.167 316.5,117.5C 317.552,117.649 318.552,117.483 319.5,117C 321.046,114.743 322.712,112.576 324.5,110.5C 322.093,109.095 320.426,107.095 319.5,104.5 Z"/></g>
<g><path style="opacity:1" fill="#df233f" d="M 349.5,109.5 C 349.833,109.5 350.167,109.5 350.5,109.5C 351.967,111.363 353.967,112.696 356.5,113.5C 357.663,115.55 357.496,117.55 356,119.5C 344.643,129.858 333.643,140.525 323,151.5C 322.208,153.587 321.041,155.421 319.5,157C 317.152,157.346 315.319,158.513 314,160.5C 313.5,163.667 311.667,165.5 308.5,166C 306.301,169.7 303.301,172.533 299.5,174.5C 298.237,176.029 297.237,177.695 296.5,179.5C 293.213,174.833 290.213,169.833 287.5,164.5C 290.226,164.736 292.559,163.903 294.5,162C 308.207,148.627 321.54,134.961 334.5,121C 337.99,119.008 340.657,116.174 342.5,112.5C 344.771,111.637 347.105,111.637 349.5,112.5C 349.5,111.5 349.5,110.5 349.5,109.5 Z"/></g>
<g><path style="opacity:0.895" fill="#fefffe" d="M 182.5,127.5 C 190.296,128.4 193.129,132.733 191,140.5C 190.5,142.333 189.333,143.5 187.5,144C 176.429,145.598 172.595,141.098 176,130.5C 178.166,129.269 180.333,128.269 182.5,127.5 Z"/></g>
<g><path style="opacity:0.921" fill="#fefffe" d="M 215.5,127.5 C 219.888,126.943 223.055,128.61 225,132.5C 225.667,165.833 225.667,199.167 225,232.5C 223.865,235.859 221.532,237.192 218,236.5C 215.648,236.695 213.648,236.028 212,234.5C 211.333,199.833 211.333,165.167 212,130.5C 213.145,129.364 214.312,128.364 215.5,127.5 Z"/></g>
<g><path style="opacity:0.921" fill="#fefffe" d="M 249.5,127.5 C 253.888,126.943 257.055,128.61 259,132.5C 259.667,165.833 259.667,199.167 259,232.5C 257.865,235.859 255.532,237.192 252,236.5C 249.648,236.695 247.648,236.028 246,234.5C 245.333,199.833 245.333,165.167 246,130.5C 247.145,129.364 248.312,128.364 249.5,127.5 Z"/></g>
<g><path style="opacity:0.999" fill="#ce2752" d="M 381.5,110.5 C 378.636,117.345 374.636,123.345 369.5,128.5C 369.5,127.833 369.167,127.5 368.5,127.5C 367.903,127.735 367.57,128.235 367.5,129C 368.158,131.322 369.158,133.488 370.5,135.5C 350.66,154.999 330.326,174.999 309.5,195.5C 308.274,196.363 306.94,196.363 305.5,195.5C 303.621,195.607 303.288,195.107 304.5,194C 302.166,191.504 300.5,188.671 299.5,185.5C 300.807,186.153 302.14,186.82 303.5,187.5C 304.192,186.975 304.692,186.308 305,185.5C 305.333,185.833 305.667,186.167 306,186.5C 319.156,172.378 332.656,158.544 346.5,145C 349.612,144.375 351.445,142.542 352,139.5C 355.799,137.034 358.966,133.868 361.5,130C 362.784,129.316 363.951,129.483 365,130.5C 365.49,129.207 365.657,127.873 365.5,126.5C 369.398,126.625 370.898,124.958 370,121.5C 370.741,120.359 371.575,120.359 372.5,121.5C 375.298,117.509 378.298,113.842 381.5,110.5 Z"/></g>
<g><path style="opacity:1" fill="#c6295d" d="M 368.5,127.5 C 369.167,127.5 369.5,127.833 369.5,128.5C 371.5,132.833 373.5,137.167 375.5,141.5C 375.887,144.254 376.221,146.754 376.5,149C 360.5,165 344.5,181 328.5,197C 327.5,197.333 326.5,197.667 325.5,198C 322.29,202.711 318.29,206.544 313.5,209.5C 311.621,209.607 311.288,209.107 312.5,208C 310.699,207.683 310.366,207.016 311.5,206C 308.835,202.846 306.835,199.346 305.5,195.5C 306.94,196.363 308.274,196.363 309.5,195.5C 330.326,174.999 350.66,154.999 370.5,135.5C 369.158,133.488 368.158,131.322 367.5,129C 367.57,128.235 367.903,127.735 368.5,127.5 Z"/></g>
<g><path style="opacity:0.925" fill="#fefffe" d="M 90.5,260.5 C 88.5,260.5 86.5,260.5 84.5,260.5C 83.1639,258.99 81.9973,257.323 81,255.5C 80.3333,233.167 80.3333,210.833 81,188.5C 85.0458,167.789 97.7125,157.789 119,158.5C 140.346,158.505 153.679,168.839 159,189.5C 161.801,224.033 145.967,239.866 111.5,237C 104.627,235.648 99.1273,232.148 95,226.5C 94.6667,236.833 94.3333,247.167 94,257.5C 92.8549,258.636 91.6883,259.636 90.5,260.5 Z M 113.5,170.5 C 133.622,169.206 144.289,178.539 145.5,198.5C 143.527,220.162 131.861,228.662 110.5,224C 99.1899,218.895 93.8565,210.061 94.5,197.5C 93.7519,183.28 100.085,174.28 113.5,170.5 Z"/></g>
<g><path style="opacity:0.92" fill="#fefffe" d="M 178.5,159.5 C 181.518,159.335 184.518,159.502 187.5,160C 188.701,160.903 189.535,162.069 190,163.5C 190.667,186.5 190.667,209.5 190,232.5C 188.865,235.859 186.532,237.192 183,236.5C 180.648,236.695 178.648,236.028 177,234.5C 176.333,210.167 176.333,185.833 177,161.5C 177.717,160.956 178.217,160.289 178.5,159.5 Z"/></g>
<g><path style="opacity:1" fill="#bb2b6a" d="M 375.5,141.5 C 378.669,145.833 381.336,150.5 383.5,155.5C 384.461,158.328 384.295,160.995 383,163.5C 363.36,182.472 343.693,201.472 324,220.5C 323.383,221.449 323.549,222.282 324.5,223C 323.934,223.995 323.267,224.828 322.5,225.5C 319.938,222.373 317.605,219.206 315.5,216C 316.634,214.984 316.301,214.317 314.5,214C 314.833,213.667 315.167,213.333 315.5,213C 314.177,212.184 313.511,211.017 313.5,209.5C 318.29,206.544 322.29,202.711 325.5,198C 326.5,197.667 327.5,197.333 328.5,197C 344.5,181 360.5,165 376.5,149C 376.221,146.754 375.887,144.254 375.5,141.5 Z"/></g>
<g><path style="opacity:0.999" fill="#b22e76" d="M 383.5,155.5 C 389.805,163.798 394.805,172.798 398.5,182.5C 396.479,180.968 394.979,178.968 394,176.5C 390.886,178.268 387.386,180.101 383.5,182C 376.348,188.152 369.515,194.652 363,201.5C 362.365,202.966 361.531,204.3 360.5,205.5C 352.576,212.25 344.742,219.25 337,226.5C 335.459,228.477 334.959,230.477 335.5,232.5C 335.145,233.522 334.478,234.189 333.5,234.5C 328.937,232.605 325.27,229.605 322.5,225.5C 323.267,224.828 323.934,223.995 324.5,223C 323.549,222.282 323.383,221.449 324,220.5C 343.693,201.472 363.36,182.472 383,163.5C 384.295,160.995 384.461,158.328 383.5,155.5 Z"/></g>
<g><path style="opacity:0.996" fill="#9a328f" d="M 400.5,194.5 C 401.057,203.891 398.89,212.557 394,220.5C 388.761,226.41 382.928,231.577 376.5,236C 369.511,239.276 362.178,240.776 354.5,240.5C 354.423,239.25 353.756,238.417 352.5,238C 367.801,225.033 382.134,211.033 395.5,196C 396.449,195.383 397.282,195.549 398,196.5C 398.417,195.244 399.25,194.577 400.5,194.5 Z"/></g>
<g><path style="opacity:1" fill="#a73084" d="M 398.5,182.5 C 400,186.326 400.666,190.326 400.5,194.5C 399.25,194.577 398.417,195.244 398,196.5C 397.282,195.549 396.449,195.383 395.5,196C 382.134,211.033 367.801,225.033 352.5,238C 353.756,238.417 354.423,239.25 354.5,240.5C 346.832,240.496 339.832,238.496 333.5,234.5C 334.478,234.189 335.145,233.522 335.5,232.5C 334.959,230.477 335.459,228.477 337,226.5C 344.742,219.25 352.576,212.25 360.5,205.5C 361.531,204.3 362.365,202.966 363,201.5C 369.515,194.652 376.348,188.152 383.5,182C 387.386,180.101 390.886,178.268 394,176.5C 394.979,178.968 396.479,180.968 398.5,182.5 Z"/></g>
</svg>
