<svg width="30" height="29" viewBox="0 0 30 29" fill="none" xmlns="http://www.w3.org/2000/svg">
<g filter="url(#filter0_d_619_14)">
<path d="M25 14.353C25 17.472 22.442 20 19.286 20H14M17.381 9.027C17.9934 8.81361 18.6375 8.70509 19.286 8.706C19.94 8.706 20.569 8.815 21.156 9.015M21.156 9.015C20.837 6.194 18.416 4 15.476 4C12.32 4 9.762 6.528 9.762 9.647C9.7612 10.317 9.88111 10.9816 10.116 11.609M21.156 9.015C21.8304 9.2458 22.4558 9.60055 23 10.061M10.116 11.609C9.84253 11.5558 9.56459 11.529 9.286 11.529C6.919 11.53 5 13.426 5 15.765C5 18.104 6.919 20 9.286 20H10M10.116 11.609C10.6693 11.7165 11.196 11.9319 11.666 12.243" stroke="black" stroke-width="1.5" stroke-linecap="round"/>
</g>
<defs>
<filter id="filter0_d_619_14" x="-1" y="0" width="32" height="32" filterUnits="userSpaceOnUse" color-interpolation-filters="sRGB">
<feFlood flood-opacity="0" result="BackgroundImageFix"/>
<feColorMatrix in="SourceAlpha" type="matrix" values="0 0 0 0 0 0 0 0 0 0 0 0 0 0 0 0 0 0 127 0" result="hardAlpha"/>
<feOffset dy="4"/>
<feGaussianBlur stdDeviation="2"/>
<feComposite in2="hardAlpha" operator="out"/>
<feColorMatrix type="matrix" values="0 0 0 0 0 0 0 0 0 0 0 0 0 0 0 0 0 0 0.25 0"/>
<feBlend mode="normal" in2="BackgroundImageFix" result="effect1_dropShadow_619_14"/>
<feBlend mode="normal" in="SourceGraphic" in2="effect1_dropShadow_619_14" result="shape"/>
</filter>
</defs>
</svg>
