<svg width="27" height="24" viewBox="0 0 27 24" fill="none" xmlns="http://www.w3.org/2000/svg">
<g clip-path="url(#clip0_619_36)">
<path d="M9.601 24C9.39148 24 9.19054 23.9168 9.04239 23.7686C8.89423 23.6205 8.811 23.4195 8.811 23.21C8.811 23.0005 8.89423 22.7995 9.04239 22.6514C9.19054 22.5032 9.39148 22.42 9.601 22.42H17.006C17.2155 22.42 17.4165 22.5032 17.5646 22.6514C17.7128 22.7995 17.796 23.0005 17.796 23.21C17.796 23.4195 17.7128 23.6205 17.5646 23.7686C17.4165 23.9168 17.2155 24 17.006 24H9.601ZM2.427 20.624C2.21748 20.624 2.01654 20.5408 1.86839 20.3926C1.72023 20.2445 1.637 20.0435 1.637 19.834C1.637 19.6245 1.72023 19.4235 1.86839 19.2754C2.01654 19.1272 2.21748 19.044 2.427 19.044H24.181C24.3905 19.044 24.5915 19.1272 24.7396 19.2754C24.8878 19.4235 24.971 19.6245 24.971 19.834C24.971 20.0435 24.8878 20.2445 24.7396 20.3926C24.5915 20.5408 24.3905 20.624 24.181 20.624H2.427ZM6.44 17.252C6.23048 17.252 6.02954 17.1688 5.88139 17.0206C5.73323 16.8725 5.65 16.6715 5.65 16.462C5.65 16.2525 5.73323 16.0515 5.88139 15.9034C6.02954 15.7552 6.23048 15.672 6.44 15.672H20.167C20.3765 15.672 20.5775 15.7552 20.7256 15.9034C20.8738 16.0515 20.957 16.2525 20.957 16.462C20.957 16.6715 20.8738 16.8725 20.7256 17.0206C20.5775 17.1688 20.3765 17.252 20.167 17.252H6.44ZM18.813 14.097H7.795C7.58548 14.097 7.38454 14.0138 7.23639 13.8656C7.08823 13.7175 7.005 13.5165 7.005 13.307V13.251C6.99718 11.5804 7.65332 9.97512 8.82907 8.78829C10.0048 7.60147 11.6039 6.93032 13.2745 6.9225C14.9451 6.91468 16.5504 7.57082 17.7372 8.74657C18.924 9.92233 19.5952 11.5214 19.603 13.192V13.195C19.6075 13.2295 19.6099 13.2642 19.61 13.299V13.308C19.61 13.5175 19.5268 13.7185 19.3786 13.8666C19.2305 14.0148 19.0295 14.098 18.82 14.098L18.813 14.097ZM8.651 12.514H17.956C17.557 10.276 15.626 8.599 13.303 8.599C10.98 8.599 9.049 10.276 8.655 12.486L8.651 12.515V12.514ZM22.544 14.097C22.3345 14.097 22.1335 14.0138 21.9854 13.8656C21.8372 13.7175 21.754 13.5165 21.754 13.307C21.754 13.0975 21.8372 12.8965 21.9854 12.7484C22.1335 12.6002 22.3345 12.517 22.544 12.517H25.816C26.0255 12.517 26.2265 12.6002 26.3746 12.7484C26.5228 12.8965 26.606 13.0975 26.606 13.307C26.606 13.5165 26.5228 13.7175 26.3746 13.8656C26.2265 14.0138 26.0255 14.097 25.816 14.097H22.544ZM0.79 14.097C0.580479 14.097 0.379539 14.0138 0.231386 13.8656C0.0832319 13.7175 0 13.5165 0 13.307C0 13.0975 0.0832319 12.8965 0.231386 12.7484C0.379539 12.6002 0.580479 12.517 0.79 12.517H4.062C4.27152 12.517 4.47246 12.6002 4.62061 12.7484C4.76877 12.8965 4.852 13.0975 4.852 13.307C4.852 13.5165 4.76877 13.7175 4.62061 13.8656C4.47246 14.0138 4.27152 14.097 4.062 14.097H0.79ZM19.279 7.331C19.2052 7.25783 19.1466 7.17076 19.1066 7.07481C19.0666 6.97887 19.046 6.87595 19.046 6.772C19.046 6.66805 19.0666 6.56513 19.1066 6.46919C19.1466 6.37324 19.2052 6.28617 19.279 6.213L21.592 3.899C21.663 3.81709 21.7501 3.75067 21.8479 3.70387C21.9456 3.65707 22.052 3.63089 22.1603 3.62696C22.2686 3.62302 22.3766 3.64142 22.4775 3.68101C22.5784 3.7206 22.6701 3.78053 22.7468 3.85707C22.8236 3.93361 22.8837 4.02513 22.9236 4.12593C22.9635 4.22672 22.9822 4.33464 22.9785 4.44298C22.9749 4.55131 22.949 4.65773 22.9024 4.75562C22.8559 4.85352 22.7897 4.94078 22.708 5.012L22.707 5.013L20.394 7.327C20.251 7.47 20.054 7.558 19.835 7.558C19.616 7.558 19.419 7.47 19.276 7.327L19.279 7.331ZM6.21 7.331L3.896 5.014C3.78502 4.90357 3.70935 4.76265 3.6786 4.60913C3.64786 4.45561 3.66342 4.29642 3.72332 4.15176C3.78322 4.00711 3.88475 3.88351 4.01502 3.79667C4.1453 3.70983 4.29843 3.66365 4.455 3.664C4.673 3.664 4.871 3.752 5.014 3.896L7.328 6.21C7.40386 6.28272 7.46445 6.36985 7.50622 6.46628C7.54799 6.56271 7.5701 6.66651 7.57125 6.77159C7.57241 6.87667 7.55259 6.98093 7.51295 7.07825C7.47332 7.17558 7.41466 7.26402 7.34042 7.3384C7.26617 7.41277 7.17784 7.47159 7.08058 7.5114C6.98333 7.55121 6.87911 7.57122 6.77402 7.57025C6.66894 7.56928 6.56511 7.54736 6.4686 7.50576C6.3721 7.46416 6.28486 7.40373 6.212 7.328L6.21 7.331ZM12.513 4.067V0.79C12.513 0.580479 12.5962 0.379539 12.7444 0.231386C12.8925 0.0832319 13.0935 0 13.303 0C13.5125 0 13.7135 0.0832319 13.8616 0.231386C14.0098 0.379539 14.093 0.580479 14.093 0.79V4.063C14.093 4.27252 14.0098 4.47346 13.8616 4.62161C13.7135 4.76977 13.5125 4.853 13.303 4.853C13.0935 4.853 12.8925 4.76977 12.7444 4.62161C12.5962 4.47346 12.513 4.27252 12.513 4.063V4.067Z" fill="black"/>
</g>
<defs>
<clipPath id="clip0_619_36">
<rect width="27" height="24" fill="white"/>
</clipPath>
</defs>
</svg>
