<svg width="24" height="24" viewBox="0 0 24 24" fill="none" xmlns="http://www.w3.org/2000/svg">
<path d="M21.0657 1.23233C20.8126 1.35233 20.3813 1.56046 19.7907 1.89514C18.9657 2.36296 18.0235 3.00327 17.6391 3.50155C17.5548 3.61077 17.4048 3.98858 17.3204 4.31014C17.2641 4.52061 17.2548 4.59233 17.236 4.69686L19.2985 6.75936C19.4016 6.74061 19.4766 6.73124 19.6876 6.67499C20.011 6.59061 20.3907 6.44061 20.4985 6.35624C20.9954 5.97186 21.6376 5.03436 22.1016 4.20983C22.4391 3.61827 22.6454 3.18749 22.7673 2.93296L21.0657 1.23233ZM20.3907 2.54624L21.4548 3.60702L20.8548 4.20421L19.7907 3.14342L20.3907 2.54624ZM16.7766 5.42811L1.9918 20.2172C2.36024 20.3578 2.72587 20.6062 3.05915 20.939C3.39149 21.2719 3.63899 21.6375 3.78196 22.0031L18.5673 7.21874L16.7766 5.42811ZM16.3876 6.86717H16.3923C16.5878 6.86997 16.7745 6.94903 16.9126 7.08749C17.0528 7.22809 17.1316 7.41858 17.1316 7.61717C17.1316 7.81577 17.0528 8.00626 16.9126 8.14686C16.8429 8.21702 16.76 8.27269 16.6687 8.31069C16.5774 8.34868 16.4795 8.36824 16.3806 8.36824C16.2817 8.36824 16.1837 8.34868 16.0924 8.31069C16.0011 8.27269 15.9182 8.21702 15.8485 8.14686C15.7083 8.00626 15.6295 7.81577 15.6295 7.61717C15.6295 7.41858 15.7083 7.22809 15.8485 7.08749C15.9191 7.01668 16.0032 6.96071 16.0958 6.92287C16.1884 6.88504 16.2876 6.8661 16.3876 6.86717ZM14.2735 8.99061C14.4668 8.99337 14.6515 9.07061 14.7891 9.20624C14.8593 9.27594 14.915 9.35883 14.953 9.45014C14.991 9.54145 15.0105 9.63937 15.0105 9.73827C15.0105 9.83716 14.991 9.93508 14.953 10.0264C14.915 10.1177 14.8593 10.2006 14.7891 10.2703C14.6485 10.4106 14.4581 10.4893 14.2595 10.4893C14.0609 10.4893 13.8704 10.4106 13.7298 10.2703C13.6596 10.2006 13.6039 10.1177 13.5659 10.0264C13.528 9.93508 13.5084 9.83716 13.5084 9.73827C13.5084 9.63937 13.528 9.54145 13.5659 9.45014C13.6039 9.35883 13.6596 9.27594 13.7298 9.20624C13.8013 9.1357 13.8864 9.08027 13.9798 9.04323C14.0732 9.00619 14.1731 8.9883 14.2735 8.99061ZM12.1501 11.1094C12.3456 11.1122 12.5323 11.1912 12.6704 11.3297C12.8107 11.4703 12.8894 11.6608 12.8894 11.8594C12.8894 12.058 12.8107 12.2484 12.6704 12.389C12.5298 12.5293 12.3393 12.6081 12.1407 12.6081C11.9421 12.6081 11.7516 12.5293 11.611 12.389C11.4708 12.2484 11.392 12.058 11.392 11.8594C11.392 11.6608 11.4708 11.4703 11.611 11.3297C11.6816 11.2589 11.7657 11.2029 11.8583 11.1651C11.9509 11.1272 12.0501 11.1083 12.1501 11.1094ZM10.0266 13.2328H10.0313C10.2252 13.2368 10.41 13.3158 10.547 13.4531C10.6872 13.5937 10.766 13.7842 10.766 13.9828C10.766 14.1814 10.6872 14.3719 10.547 14.5125C10.4064 14.6527 10.2159 14.7315 10.0173 14.7315C9.81867 14.7315 9.62818 14.6527 9.48758 14.5125C9.34732 14.3719 9.26856 14.1814 9.26856 13.9828C9.26856 13.7842 9.34732 13.5937 9.48758 13.4531C9.55821 13.3823 9.64228 13.3263 9.73486 13.2885C9.82744 13.2507 9.92664 13.2317 10.0266 13.2328ZM7.9079 15.3562C8.10276 15.3578 8.28937 15.4351 8.42821 15.5719C8.49836 15.6416 8.55404 15.7245 8.59203 15.8158C8.63003 15.9071 8.64959 16.005 8.64959 16.1039C8.64959 16.2028 8.63003 16.3007 8.59203 16.392C8.55404 16.4833 8.49836 16.5662 8.42821 16.6359C8.3585 16.7061 8.27561 16.7618 8.1843 16.7997C8.093 16.8377 7.99508 16.8573 7.89618 16.8573C7.79728 16.8573 7.69936 16.8377 7.60805 16.7997C7.51675 16.7618 7.43385 16.7061 7.36415 16.6359C7.29399 16.5662 7.23832 16.4833 7.20032 16.392C7.16233 16.3007 7.14277 16.2028 7.14277 16.1039C7.14277 16.005 7.16233 15.9071 7.20032 15.8158C7.23832 15.7245 7.29399 15.6416 7.36415 15.5719C7.43572 15.5013 7.52073 15.4459 7.61413 15.4089C7.70754 15.3718 7.80744 15.3539 7.9079 15.3562ZM1.36134 20.9297C1.29384 20.9297 1.26149 20.9484 1.25587 20.9531C1.24602 20.9625 1.19962 21.0609 1.27602 21.3047C1.35571 21.5484 1.55118 21.8719 1.83946 22.1578C2.12774 22.4484 2.4493 22.6453 2.69446 22.725C2.93633 22.8 3.03618 22.7531 3.04602 22.7437C3.05587 22.7344 3.10227 22.6312 3.02587 22.3922C2.94665 22.1484 2.75071 21.825 2.46243 21.5344C2.17415 21.2484 1.85258 21.0515 1.60743 20.9719C1.51696 20.9437 1.44618 20.9344 1.39274 20.9297H1.36134Z" fill="black"/>
</svg>
