<svg width="24" height="24" viewBox="0 0 24 24" fill="none" xmlns="http://www.w3.org/2000/svg">
<path d="M15.75 5.25C15.347 5.25145 14.9518 5.36098 14.6055 5.56716C14.2592 5.77334 13.9746 6.06863 13.7812 6.42225C13.5262 6.5715 13.014 6.89625 12.4455 7.52325C11.745 7.53525 10.4385 7.58775 8.95275 8.0625C7.365 8.5695 5.66325 9.59775 4.71075 11.4847C4.7025 11.505 4.67325 11.511 4.66425 11.5312C4.626 11.5725 4.263 11.9475 3.867 12.5392C3.4545 13.1602 3 13.9748 3 14.9295C3 15.618 3.24 16.3095 3.75 16.8045C3.91725 16.9688 4.134 17.0828 4.35975 17.1795C4.27125 17.2973 4.1775 17.4113 4.10175 17.5312C3.92925 17.8013 3.75 17.991 3.75 18.492C3.75 18.8055 3.97875 19.1048 4.14825 19.2188C4.3185 19.3327 4.4385 19.3763 4.5705 19.4062C4.83075 19.4648 5.103 19.4707 5.41425 19.4767C6.03825 19.485 6.84975 19.4505 7.758 19.4062C9.5775 19.3185 11.8005 19.239 13.383 19.5L13.617 18C12.867 17.877 12.0345 17.8275 11.2035 17.8125C11.6632 17.3235 12 16.7108 12 15.9608C12 14.763 11.2268 13.8547 10.3358 13.383C9.4455 12.9105 8.41125 12.75 7.5 12.75V14.25C8.20575 14.25 9.0525 14.4113 9.633 14.7188C10.2127 15.0262 10.5 15.3548 10.5 15.9608C10.5 16.4505 10.1017 16.9132 9.4455 17.2972C8.78925 17.6805 7.91325 17.8823 7.641 17.8823V17.9062C6.82875 17.9438 6.138 17.9767 5.625 17.9767C5.70375 17.8717 5.775 17.7773 5.85975 17.6715C6.22875 17.2178 6.60975 16.8278 6.60975 16.8278L5.50725 15.7965L5.48475 15.8438C5.10675 15.9548 4.9425 15.8812 4.78125 15.7267C4.62 15.5715 4.5 15.252 4.5 14.9295C4.5 14.5313 4.79625 13.89 5.133 13.383C5.46975 12.876 5.78925 12.5153 5.78925 12.5153L5.883 12.4215L5.9295 12.3045C6.627 10.758 8.01 9.9435 9.42225 9.492C10.833 9.04125 12.2288 9 12.75 9H13.125L13.3597 8.6955C13.4617 8.5545 13.5735 8.4555 13.6875 8.34375C14.0273 9.16125 14.8185 9.75 15.75 9.75C16.9425 9.75 17.9122 8.79525 17.9767 7.617C18.3195 7.7025 18.6593 7.8165 18.9375 7.96875C19.1775 8.10075 19.371 8.247 19.4767 8.34375C19.4707 8.37375 19.4648 8.35875 19.4528 8.391C19.4033 8.52825 19.3005 8.6895 19.1715 8.883C18.9113 9.26625 18.4808 9.70875 17.7188 10.008L17.25 10.1955V10.7108C17.25 11.763 17.1563 14.3498 15.7028 15.375L16.5705 16.5938C18.6765 15.1058 18.7028 12.4215 18.7028 11.1562C19.485 10.7512 20.0677 10.236 20.4142 9.72675C20.619 9.42225 20.7683 9.138 20.859 8.883C20.9505 8.628 21 8.4255 21 8.1795C21 7.59975 20.7128 7.45275 20.484 7.242C20.2276 7.0132 19.9442 6.8165 19.6403 6.65625C19.0313 6.3255 18.264 6.0615 17.4375 6.02325C17.2277 5.78136 16.9686 5.5872 16.6775 5.45383C16.3864 5.32045 16.0702 5.25095 15.75 5.25ZM15.75 6.75C16.1723 6.75 16.5 7.0785 16.5 7.5C16.5 7.92225 16.1715 8.25 15.75 8.25C15.3277 8.25 15 7.9215 15 7.5C15 7.07775 15.3285 6.75 15.75 6.75ZM14.25 12.2812C13.8241 12.8806 13.5432 13.5708 13.4295 14.2972C13.3395 14.88 13.362 15.4193 13.3597 15.4448V15.4688C13.3597 15.6652 13.3942 15.6915 13.4062 15.7267L13.4295 15.7965C13.4475 15.8438 13.4768 15.888 13.5 15.9375C13.5443 16.0342 13.5937 16.1482 13.6642 16.2892C13.8075 16.5705 14.0092 16.9395 14.2267 17.3205C14.6632 18.0787 15.0998 18.864 15.6795 19.359C15.7673 19.4385 15.87 19.494 15.9847 19.524C16.3297 19.6027 16.4827 19.512 16.641 19.4767C16.7985 19.4415 16.9537 19.4122 17.133 19.383C17.487 19.3275 17.9235 19.3035 18.5392 19.4767L18.9608 18.0233C18.2898 17.8356 17.5861 17.7957 16.8983 17.9062C16.7168 17.9362 16.5967 17.9737 16.4767 18C16.2682 17.754 15.87 17.1885 15.5153 16.5705C15.2828 16.1636 15.0639 15.7492 14.859 15.3278C14.8568 15.3225 14.862 15.3075 14.859 15.3052C14.862 15.0705 14.8568 14.8567 14.9062 14.5312C14.9708 14.1187 15.1237 13.638 15.4688 13.1483L14.25 12.2812Z" fill="black"/>
</svg>
