<svg width="24" height="24" viewBox="0 0 24 24" fill="none" xmlns="http://www.w3.org/2000/svg">
<path fill-rule="evenodd" clip-rule="evenodd" d="M22 6.00003C21.9999 5.42338 21.8752 4.85356 21.6343 4.32963C21.3934 3.8057 21.0421 3.34005 20.6044 2.96459C20.1667 2.58913 19.6531 2.31274 19.0986 2.15437C18.5441 1.99599 17.962 1.95938 17.392 2.04703L10.392 3.12403C9.44752 3.26928 8.58625 3.74785 7.96406 4.47312C7.34187 5.19839 6.99989 6.12245 7 7.07803V15.841C6.31482 15.516 5.54262 15.4223 4.7996 15.5741C4.05658 15.7259 3.38296 16.1148 2.8801 16.6825C2.37725 17.2502 2.07237 17.9658 2.01135 18.7217C1.95033 19.4776 2.13648 20.2329 2.54177 20.8738C2.94706 21.5148 3.54957 22.0068 4.25863 22.2758C4.96768 22.5447 5.74492 22.5761 6.47336 22.3652C7.2018 22.1543 7.84203 21.7125 8.29771 21.1064C8.75338 20.5002 8.99985 19.7624 9 19.004V7.07803C8.99971 6.60006 9.17059 6.1378 9.48171 5.77495C9.79282 5.41211 10.2236 5.17268 10.696 5.10003L17.696 4.02303C17.9811 3.97918 18.2723 3.99753 18.5497 4.0768C18.827 4.15608 19.0839 4.2944 19.3028 4.4823C19.5216 4.67019 19.6973 4.90321 19.8176 5.16535C19.938 5.4275 20.0002 5.71258 20 6.00103V12.841C19.3148 12.516 18.5426 12.4223 17.7996 12.5741C17.0566 12.7259 16.383 13.1148 15.8801 13.6825C15.3772 14.2502 15.0724 14.9658 15.0114 15.7217C14.9503 16.4776 15.1365 17.2329 15.5418 17.8738C15.9471 18.5148 16.5496 19.0068 17.2586 19.2758C17.9677 19.5447 18.7449 19.5761 19.4734 19.3652C20.2018 19.1543 20.842 18.7125 21.2977 18.1064C21.7534 17.5002 21.9998 16.7624 22 16.004V6.00003ZM20 16.004C20 15.6062 19.842 15.2247 19.5607 14.9434C19.2794 14.6621 18.8978 14.504 18.5 14.504C18.1022 14.504 17.7206 14.6621 17.4393 14.9434C17.158 15.2247 17 15.6062 17 16.004C17 16.4019 17.158 16.7834 17.4393 17.0647C17.7206 17.346 18.1022 17.504 18.5 17.504C18.8978 17.504 19.2794 17.346 19.5607 17.0647C19.842 16.7834 20 16.4019 20 16.004ZM7 19.004C7 18.807 6.9612 18.612 6.88582 18.43C6.81044 18.248 6.69995 18.0827 6.56066 17.9434C6.42138 17.8041 6.25602 17.6936 6.07403 17.6182C5.89204 17.5428 5.69699 17.504 5.5 17.504C5.30302 17.504 5.10797 17.5428 4.92598 17.6182C4.74399 17.6936 4.57863 17.8041 4.43934 17.9434C4.30005 18.0827 4.18957 18.248 4.11418 18.43C4.0388 18.612 4 18.807 4 19.004C4 19.4019 4.15804 19.7834 4.43934 20.0647C4.72065 20.346 5.10218 20.504 5.5 20.504C5.89783 20.504 6.27936 20.346 6.56066 20.0647C6.84197 19.7834 7 19.4019 7 19.004Z" fill="black"/>
</svg>
