<svg width="24" height="24" viewBox="0 0 24 24" fill="none" xmlns="http://www.w3.org/2000/svg">
<path d="M12 18C12 19.0609 11.5786 20.0783 10.8284 20.8284C10.0783 21.5786 9.06087 22 8 22C6.93913 22 5.92172 21.5786 5.17157 20.8284C4.42143 20.0783 4 19.0609 4 18C4 16.9391 4.42143 15.9217 5.17157 15.1716C5.92172 14.4214 6.93913 14 8 14C9.06087 14 10.0783 14.4214 10.8284 15.1716C11.5786 15.9217 12 16.9391 12 18Z" stroke="black" stroke-width="1.5"/>
<path d="M12 12V5.99998M16.117 10.059L13.483 8.74198C13.118 8.55998 12.936 8.46798 12.785 8.35298C12.3944 8.05455 12.1274 7.62274 12.035 7.13998C12 6.95398 12 6.74998 12 6.34198C12 5.37098 12 4.88498 12.12 4.55498C12.2736 4.13134 12.5657 3.77197 12.949 3.53511C13.3323 3.29825 13.7844 3.19778 14.232 3.24998C14.58 3.28998 15.015 3.50798 15.883 3.94198L18.517 5.25898C18.882 5.44098 19.064 5.53198 19.215 5.64798C19.6054 5.94617 19.8723 6.37759 19.965 6.85998C20 7.04698 20 7.24998 20 7.65898C20 8.62898 20 9.11498 19.88 9.44498C19.7266 9.86881 19.4346 10.2284 19.0512 10.4655C18.6679 10.7025 18.2157 10.8031 17.768 10.751C17.42 10.711 16.985 10.493 16.117 10.059Z" stroke="black" stroke-width="1.5" stroke-linecap="round"/>
</svg>
