<svg width="24" height="24" viewBox="0 0 24 24" fill="none" xmlns="http://www.w3.org/2000/svg">
<path d="M6 14C6.8 14 7.53333 14.2167 8.2 14.65C8.86667 15.0833 9.35833 15.675 9.675 16.425L9.925 17H10.55C11.25 17 11.8333 17.246 12.3 17.738C12.7667 18.23 13 18.8173 13 19.5C13 20.2 12.7583 20.7917 12.275 21.275C11.7917 21.7583 11.2 22 10.5 22H6C4.9 22 3.95833 21.6083 3.175 20.825C2.39167 20.0417 2 19.1 2 18C2 16.8833 2.39167 15.9373 3.175 15.162C3.95833 14.3867 4.9 13.9993 6 14ZM11.25 3C10.95 4.65 11.0417 6.26267 11.525 7.838C12.0083 9.41333 12.8417 10.7923 14.025 11.975C15.2083 13.1577 16.5877 13.991 18.163 14.475C19.7383 14.959 21.3507 15.0507 23 14.75C22.5667 17.1167 21.4417 19.071 19.625 20.613C17.8083 22.155 15.7083 22.9507 13.325 23C13.8583 22.5667 14.271 22.046 14.563 21.438C14.855 20.83 15.0007 20.184 15 19.5C15 18.3667 14.646 17.3877 13.938 16.563C13.23 15.7383 12.3257 15.2423 11.225 15.075C10.6917 14.125 9.96267 13.375 9.038 12.825C8.11333 12.275 7.10067 12 6 12C5.46667 12 4.946 12.0667 4.438 12.2C3.93 12.3333 3.45067 12.5333 3 12.8C3.03333 10.3833 3.821 8.25833 5.363 6.425C6.905 4.59167 8.86733 3.45 11.25 3Z" fill="black"/>
</svg>
