<svg width="24" height="24" viewBox="0 0 24 24" fill="none" xmlns="http://www.w3.org/2000/svg">
<path d="M10.4039 17.766C10.4187 17.7803 10.4327 17.7953 10.4459 17.811C10.1964 17.7444 9.95158 17.6615 9.71289 17.563C9.83585 17.5362 9.96359 17.5407 10.0843 17.5761C10.2051 17.6116 10.315 17.6769 10.4039 17.766ZM8.43589 16.705C8.40911 16.7318 8.38036 16.7565 8.34989 16.779C7.95661 16.4777 7.60194 16.129 7.29389 15.741C7.35386 15.6562 7.43081 15.5847 7.51986 15.5311C7.60891 15.4776 7.70812 15.4431 7.81119 15.4299C7.91426 15.4168 8.01895 15.4251 8.11861 15.4545C8.21828 15.4839 8.31074 15.5337 8.39015 15.6008C8.46955 15.6678 8.53416 15.7506 8.57988 15.8439C8.62559 15.9372 8.65142 16.039 8.65572 16.1428C8.66002 16.2467 8.6427 16.3502 8.60486 16.447C8.56702 16.5438 8.50947 16.6316 8.43589 16.705ZM6.37089 13.648C6.47809 13.7552 6.55029 13.8924 6.57796 14.0415C6.60563 14.1905 6.58747 14.3445 6.52589 14.483C6.38401 14.1695 6.26958 13.8443 6.18389 13.511C6.25294 13.5467 6.31603 13.5929 6.37089 13.648ZM6.37089 10.675C6.29649 10.7495 6.20721 10.8074 6.10889 10.845C6.18507 10.4564 6.30033 10.0765 6.45289 9.71101C6.55521 9.85552 6.60311 10.0316 6.58811 10.208C6.5731 10.3844 6.49615 10.5499 6.37089 10.675ZM7.37489 8.70701C7.29256 8.62478 7.23057 8.52445 7.19389 8.41401C7.45889 8.06101 7.76189 7.73801 8.09689 7.45101C8.20829 7.48037 8.31144 7.53499 8.39832 7.61065C8.4852 7.68631 8.55349 7.78096 8.59788 7.88727C8.64227 7.99358 8.66158 8.10869 8.65429 8.22367C8.64701 8.33865 8.61334 8.4504 8.55589 8.55026C8.49844 8.65012 8.41876 8.73541 8.32302 8.7995C8.22729 8.86359 8.11807 8.90476 8.00386 8.91982C7.88964 8.93489 7.77348 8.92343 7.66441 8.88636C7.55533 8.84928 7.45626 8.78857 7.37489 8.70701ZM9.34389 6.76701C9.31387 6.73705 9.28644 6.7046 9.26189 6.67001C9.69319 6.44864 10.1499 6.28073 10.6219 6.17001C10.6363 6.32378 10.6029 6.47825 10.5261 6.61227C10.4494 6.74629 10.3331 6.85331 10.1932 6.91867C10.0532 6.98404 9.89654 7.00455 9.7445 6.9774C9.59247 6.95025 9.45254 6.87677 9.34389 6.76701ZM13.2869 17.873C13.5969 17.805 13.8969 17.713 14.1869 17.6C14.0282 17.5361 13.8525 17.5283 13.6888 17.5779C13.5251 17.6276 13.3833 17.7317 13.2869 17.873ZM15.5309 16.86C15.9349 16.566 16.3009 16.222 16.6189 15.837C16.5545 15.7552 16.4739 15.6876 16.382 15.6387C16.2901 15.5897 16.1891 15.5605 16.0853 15.5527C15.9815 15.5449 15.8772 15.5589 15.7791 15.5936C15.6809 15.6283 15.5911 15.6831 15.5153 15.7545C15.4395 15.8258 15.3794 15.9121 15.3388 16.008C15.2981 16.1038 15.2779 16.2071 15.2794 16.3112C15.2809 16.4153 15.304 16.5179 15.3473 16.6126C15.3906 16.7072 15.4531 16.7908 15.5309 16.86ZM17.3649 14.692C17.5657 14.2908 17.7204 13.8681 17.8259 13.432C17.6875 13.4477 17.5562 13.5016 17.4467 13.5877C17.3372 13.6738 17.2539 13.7887 17.206 13.9195C17.1581 14.0504 17.1476 14.1919 17.1757 14.3284C17.2038 14.4648 17.2693 14.5907 17.3649 14.692ZM17.8909 10.893C17.8041 10.4334 17.6635 9.98567 17.4719 9.55901C17.3535 9.65337 17.2664 9.78135 17.2221 9.92613C17.1778 10.0709 17.1783 10.2257 17.2237 10.3702C17.269 10.5146 17.357 10.642 17.4761 10.7355C17.5952 10.829 17.7398 10.8842 17.8909 10.894M16.7559 8.36001C16.4974 8.02346 16.2041 7.71509 15.8809 7.44001C15.7494 7.46645 15.6274 7.52767 15.5276 7.61729C15.4278 7.70691 15.3539 7.82164 15.3135 7.94955C15.2731 8.07745 15.2678 8.21384 15.2981 8.3445C15.3283 8.47517 15.3931 8.59533 15.4856 8.69246C15.578 8.7896 15.6949 8.86016 15.8239 8.89679C15.9529 8.93342 16.0894 8.93477 16.2192 8.90072C16.3489 8.86667 16.4671 8.79845 16.5615 8.70317C16.6559 8.6079 16.723 8.49005 16.7559 8.36001ZM14.4369 6.76701C14.4889 6.71509 14.5331 6.65579 14.5679 6.59101C14.1213 6.37872 13.65 6.22285 13.1649 6.12701C13.1419 6.28299 13.1686 6.44224 13.2413 6.58214C13.314 6.72204 13.4289 6.83548 13.5698 6.90634C13.7106 6.97721 13.8702 7.00188 14.0259 6.97687C14.1815 6.95186 14.3253 6.87843 14.4369 6.76701ZM12.5259 7.64601C12.5996 7.71468 12.6587 7.79748 12.6997 7.88948C12.7407 7.98148 12.7627 8.08079 12.7645 8.18149C12.7663 8.28219 12.7477 8.38222 12.71 8.47561C12.6723 8.569 12.6161 8.65383 12.5449 8.72505C12.4737 8.79627 12.3889 8.85242 12.2955 8.89014C12.2021 8.92786 12.1021 8.94638 12.0014 8.94461C11.9007 8.94283 11.8013 8.92079 11.7093 8.8798C11.6173 8.8388 11.5345 8.7797 11.4659 8.70601C11.3334 8.56384 11.2613 8.37579 11.2647 8.18149C11.2681 7.98719 11.3469 7.80181 11.4843 7.66439C11.6217 7.52698 11.8071 7.44827 12.0014 7.44484C12.1957 7.44141 12.3837 7.51353 12.5259 7.64601ZM10.4039 9.61501C10.4776 9.68368 10.5367 9.76648 10.5777 9.85848C10.6187 9.95048 10.6407 10.0498 10.6425 10.1505C10.6443 10.2512 10.6257 10.3512 10.588 10.4446C10.5503 10.538 10.4941 10.6228 10.4229 10.6941C10.3517 10.7653 10.2669 10.8214 10.1735 10.8591C10.0801 10.8969 9.98007 10.9154 9.87936 10.9136C9.77866 10.9118 9.67935 10.8898 9.58735 10.8488C9.49535 10.8078 9.41255 10.7487 9.34389 10.675C9.21141 10.5328 9.13928 10.3448 9.14271 10.1505C9.14614 9.95619 9.22485 9.77081 9.36226 9.63339C9.49968 9.49598 9.68506 9.41727 9.87936 9.41384C10.0737 9.41041 10.2617 9.48253 10.4039 9.61501ZM8.43589 12.797C8.50555 12.7273 8.56082 12.6446 8.59852 12.5536C8.63622 12.4626 8.65563 12.365 8.65563 12.2665C8.65563 12.168 8.63622 12.0704 8.59852 11.9794C8.56082 11.8884 8.50555 11.8057 8.43589 11.736C8.36622 11.6663 8.28351 11.6111 8.19249 11.5734C8.10147 11.5357 8.00391 11.5163 7.90539 11.5163C7.80686 11.5163 7.70931 11.5357 7.61828 11.5734C7.52726 11.6111 7.44455 11.6663 7.37489 11.736C7.24241 11.8782 7.17028 12.0662 7.17371 12.2605C7.17714 12.4548 7.25585 12.6402 7.39326 12.7776C7.53068 12.915 7.71606 12.9938 7.91036 12.9972C8.10467 13.0006 8.29271 12.9285 8.43489 12.796M10.4039 13.648C10.4776 13.7167 10.5367 13.7995 10.5777 13.8915C10.6187 13.9835 10.6407 14.0828 10.6425 14.1835C10.6443 14.2842 10.6257 14.3842 10.588 14.4776C10.5503 14.571 10.4941 14.6558 10.4229 14.7271C10.3517 14.7983 10.2669 14.8544 10.1735 14.8921C10.0801 14.9299 9.98007 14.9484 9.87936 14.9466C9.77866 14.9448 9.67935 14.9228 9.58735 14.8818C9.49535 14.8408 9.41255 14.7817 9.34389 14.708C9.21141 14.5658 9.13928 14.3778 9.14271 14.1835C9.14614 13.9892 9.22485 13.8038 9.36226 13.6664C9.49968 13.529 9.68506 13.4503 9.87936 13.4468C10.0737 13.4434 10.2617 13.5155 10.4039 13.648ZM12.5259 12.797C12.5956 12.7273 12.6508 12.6446 12.6885 12.5536C12.7262 12.4626 12.7456 12.365 12.7456 12.2665C12.7456 12.168 12.7262 12.0704 12.6885 11.9794C12.6508 11.8884 12.5956 11.8057 12.5259 11.736C12.4562 11.6663 12.3735 11.6111 12.2825 11.5734C12.1915 11.5357 12.0939 11.5163 11.9954 11.5163C11.8969 11.5163 11.7993 11.5357 11.7083 11.5734C11.6173 11.6111 11.5346 11.6663 11.4649 11.736C11.3324 11.8782 11.2603 12.0662 11.2637 12.2605C11.2671 12.4548 11.3459 12.6402 11.4833 12.7776C11.6207 12.915 11.8061 12.9938 12.0004 12.9972C12.1947 13.0006 12.3827 12.9285 12.5249 12.796M14.4369 9.61501C14.5106 9.68368 14.5697 9.76648 14.6107 9.85848C14.6517 9.95048 14.6737 10.0498 14.6755 10.1505C14.6773 10.2512 14.6587 10.3512 14.621 10.4446C14.5833 10.538 14.5271 10.6228 14.4559 10.6941C14.3847 10.7653 14.2999 10.8214 14.2065 10.8591C14.1131 10.8969 14.0131 10.9154 13.9124 10.9136C13.8117 10.9118 13.7123 10.8898 13.6203 10.8488C13.5283 10.8078 13.4455 10.7487 13.3769 10.675C13.2444 10.5328 13.1723 10.3448 13.1757 10.1505C13.1791 9.95619 13.2579 9.77081 13.3953 9.63339C13.5327 9.49598 13.7181 9.41727 13.9124 9.41384C14.1067 9.41041 14.2947 9.48253 14.4369 9.61501ZM16.5589 12.768C16.6305 12.6988 16.6876 12.616 16.7268 12.5245C16.7661 12.433 16.7868 12.3345 16.7876 12.235C16.7884 12.1354 16.7694 12.0366 16.7316 11.9445C16.6939 11.8523 16.6381 11.7686 16.5677 11.6982C16.4972 11.6278 16.4135 11.5722 16.3213 11.5345C16.2291 11.4968 16.1303 11.4779 16.0307 11.4788C15.9311 11.4797 15.8327 11.5005 15.7413 11.5398C15.6498 11.5792 15.567 11.6364 15.4979 11.708C15.3654 11.8502 15.2933 12.0382 15.2967 12.2325C15.3001 12.4268 15.3789 12.6122 15.5163 12.7496C15.6537 12.887 15.8391 12.9658 16.0334 12.9692C16.2277 12.9726 16.4167 12.9005 16.5589 12.768ZM14.4229 13.69C14.4966 13.7587 14.5557 13.8415 14.5967 13.9335C14.6377 14.0255 14.6597 14.1248 14.6615 14.2255C14.6633 14.3262 14.6447 14.4262 14.607 14.5196C14.5693 14.613 14.5131 14.6978 14.4419 14.7691C14.3707 14.8403 14.2859 14.8964 14.1925 14.9341C14.0991 14.9719 13.9991 14.9904 13.8984 14.9886C13.7977 14.9868 13.6983 14.9648 13.6063 14.9238C13.5143 14.8828 13.4315 14.8237 13.3629 14.75C13.2304 14.6078 13.1583 14.4198 13.1617 14.2255C13.1651 14.0312 13.2439 13.8458 13.3813 13.7084C13.5187 13.571 13.7041 13.4923 13.8984 13.4888C14.0927 13.4854 14.2807 13.5575 14.4229 13.69ZM12.3159 16.705C12.3896 16.6364 12.4487 16.5536 12.4897 16.4616C12.5307 16.3696 12.5527 16.2702 12.5545 16.1695C12.5563 16.0688 12.5377 15.9688 12.5 15.8754C12.4623 15.782 12.4061 15.6972 12.3349 15.626C12.2637 15.5548 12.1789 15.4986 12.0855 15.4609C11.9921 15.4232 11.8921 15.4046 11.7914 15.4064C11.6907 15.4082 11.5913 15.4302 11.4993 15.4712C11.4073 15.5122 11.3245 15.5713 11.2559 15.645C11.1234 15.7872 11.0513 15.9752 11.0547 16.1695C11.0581 16.3638 11.1369 16.5492 11.2743 16.6866C11.4117 16.824 11.5971 16.9028 11.7914 16.9062C11.9857 16.9096 12.1737 16.8375 12.3159 16.705Z" fill="black"/>
<path fill-rule="evenodd" clip-rule="evenodd" d="M22 12C22 17.523 17.523 22 12 22C6.477 22 2 17.523 2 12C2 6.477 6.477 2 12 2C17.523 2 22 6.477 22 12ZM20 12C20 14.1217 19.1571 16.1566 17.6569 17.6569C16.1566 19.1571 14.1217 20 12 20C9.87827 20 7.84344 19.1571 6.34315 17.6569C4.84285 16.1566 4 14.1217 4 12C4 9.87827 4.84285 7.84344 6.34315 6.34315C7.84344 4.84285 9.87827 4 12 4C14.1217 4 16.1566 4.84285 17.6569 6.34315C19.1571 7.84344 20 9.87827 20 12Z" fill="black"/>
</svg>
