<svg width="24" height="24" viewBox="0 0 24 24" fill="none" xmlns="http://www.w3.org/2000/svg">
<path d="M8.20494 8.7825C8.60674 8.7825 8.99209 8.62289 9.27621 8.33877C9.56033 8.05465 9.71994 7.66931 9.71994 7.2675C9.71994 6.8657 9.56033 6.48035 9.27621 6.19624C8.99209 5.91212 8.60674 5.7525 8.20494 5.7525C7.80314 5.7525 7.41779 5.91212 7.13367 6.19624C6.84956 6.48035 6.68994 6.8657 6.68994 7.2675C6.68994 7.66931 6.84956 8.05465 7.13367 8.33877C7.41779 8.62289 7.80314 8.7825 8.20494 8.7825ZM17.6849 7.2675C17.6849 7.66931 17.5253 8.05465 17.2412 8.33877C16.9571 8.62289 16.5717 8.7825 16.1699 8.7825C15.7681 8.7825 15.3828 8.62289 15.0987 8.33877C14.8146 8.05465 14.6549 7.66931 14.6549 7.2675C14.6549 6.8657 14.8146 6.48035 15.0987 6.19624C15.3828 5.91212 15.7681 5.7525 16.1699 5.7525C16.5717 5.7525 16.9571 5.91212 17.2412 6.19624C17.5253 6.48035 17.6849 6.8657 17.6849 7.2675Z" fill="black"/>
<path d="M20.235 1.5C20.235 2.385 19.905 3.18 19.365 3.795C20.04 4.575 20.4525 5.5875 20.4525 6.69C20.4525 7.86225 20.199 8.77125 19.7438 9.47475C20.166 10.4723 20.4 11.5687 20.4 12.72C20.4 15.7852 18.7433 18.4635 16.2773 19.908C16.6448 20.4975 16.8908 21.171 16.98 21.8925C17.0498 22.4558 16.5833 22.875 16.08 22.875H8.1825C7.67925 22.875 7.21275 22.4558 7.2825 21.8925C7.3695 21.1905 7.605 20.535 7.9575 19.9575C6.67926 19.2304 5.6165 18.1777 4.87742 16.9063C4.13834 15.635 3.74933 14.1905 3.75 12.72C3.75 11.5275 4.0005 10.3935 4.45275 9.3675C4.03875 8.67975 3.81 7.80375 3.81 6.69C3.81 5.5875 4.2225 4.575 4.8975 3.795C4.33756 3.16155 4.02819 2.34545 4.0275 1.5H8.2575C9.075 1.5 9.825 1.785 10.4175 2.2575H13.8375C14.43 1.785 15.18 1.5 15.9975 1.5H20.235ZM8.62725 20.2995C8.31225 20.8005 8.10225 21.372 8.02725 21.9847C8.02484 22.0011 8.02629 22.0177 8.03151 22.0333C8.03672 22.049 8.04554 22.0632 8.05725 22.0748C8.07368 22.0911 8.09324 22.104 8.11476 22.1126C8.13628 22.1213 8.15932 22.1255 8.1825 22.125H16.08C16.1031 22.1254 16.126 22.1211 16.1473 22.1125C16.1687 22.1039 16.1882 22.091 16.2045 22.0748C16.2165 22.0633 16.2256 22.0492 16.2311 22.0335C16.2365 22.0179 16.2382 22.0012 16.236 21.9847C16.1601 21.3699 15.9466 20.78 15.6113 20.259C15.0113 20.541 14.3715 20.7532 13.704 20.886C13.1831 21.0929 12.628 21.2003 12.0675 21.2025C11.4968 21.2025 10.9425 21.0878 10.4153 20.88C9.79125 20.7533 9.19275 20.5575 8.62725 20.2995ZM11.85 11.8215C9.49875 11.8215 7.377 11.625 5.90325 10.7565C5.69859 11.3578 5.59444 11.9888 5.595 12.624C5.595 15.9915 8.49 20.25 12.0675 20.25C15.645 20.25 18.54 15.9915 18.54 12.624C18.54 11.9955 18.4395 11.3887 18.2528 10.818C16.785 11.634 14.7075 11.8215 12.4125 11.8215H11.85ZM8.205 9.7275C8.85743 9.7275 9.48314 9.46832 9.94448 9.00698C10.4058 8.54564 10.665 7.91993 10.665 7.2675C10.665 6.61507 10.4058 5.98936 9.94448 5.52802C9.48314 5.06668 8.85743 4.8075 8.205 4.8075C7.55257 4.8075 6.92686 5.06668 6.46552 5.52802C6.00418 5.98936 5.745 6.61507 5.745 7.2675C5.745 7.91993 6.00418 8.54564 6.46552 9.00698C6.92686 9.46832 7.55257 9.7275 8.205 9.7275ZM16.17 9.7275C16.8224 9.7275 17.4481 9.46832 17.9095 9.00698C18.3708 8.54564 18.63 7.91993 18.63 7.2675C18.63 6.61507 18.3708 5.98936 17.9095 5.52802C17.4481 5.06668 16.8224 4.8075 16.17 4.8075C15.5176 4.8075 14.8919 5.06668 14.4305 5.52802C13.9692 5.98936 13.71 6.61507 13.71 7.2675C13.71 7.91993 13.9692 8.54564 14.4305 9.00698C14.8919 9.46832 15.5176 9.7275 16.17 9.7275ZM11.025 9.405H13.3575C13.3575 8.76 12.84 8.2425 12.195 8.235C11.55 8.235 11.025 8.76 11.025 9.405Z" fill="black"/>
</svg>
