<svg width="24" height="24" viewBox="0 0 24 24" fill="none" xmlns="http://www.w3.org/2000/svg">
<path fill-rule="evenodd" clip-rule="evenodd" d="M22 21C22.5304 21 23.0391 20.7893 23.4142 20.4142C23.7893 20.0391 24 19.5304 24 19V5C24 4.46957 23.7893 3.96086 23.4142 3.58579C23.0391 3.21071 22.5304 3 22 3H3C2.46957 3 1.96086 3.21071 1.58579 3.58579C1.21071 3.96086 1 4.46957 1 5V19C1 19.5304 1.21071 20.0391 1.58579 20.4142C1.96086 20.7893 2.46957 21 3 21H22ZM11 5H8.985V13H7.985V19H12V13H11V5ZM18.015 19H22V5H19.015V13H18.015V19ZM17.015 13H16.015V5H14V13H13V19H17.015V13ZM6.985 19V13H5.985V5H3V19H6.985Z" fill="black"/>
</svg>
