<svg width="24" height="24" viewBox="0 0 24 24" fill="none" xmlns="http://www.w3.org/2000/svg">
<path d="M19.78 3H11.22C10.55 3 10 3.55 10 4.22V8H16V14H19.78C20.45 14 21 13.45 21 12.78V4.22C21 3.55 20.45 3 19.78 3ZM12.44 6.67C12.1138 6.67 11.8009 6.54041 11.5703 6.30974C11.3396 6.07907 11.21 5.76622 11.21 5.44C11.21 5.11378 11.3396 4.80093 11.5703 4.57026C11.8009 4.33959 12.1138 4.21 12.44 4.21C12.7662 4.21 13.0791 4.33959 13.3097 4.57026C13.5404 4.80093 13.67 5.11378 13.67 5.44C13.67 6.12 13.12 6.67 12.44 6.67ZM18.56 12.78C18.3985 12.7813 18.2383 12.7508 18.0885 12.6902C17.9388 12.6296 17.8025 12.5401 17.6873 12.4268C17.5722 12.3135 17.4805 12.1787 17.4175 12.0299C17.3544 11.8812 17.3213 11.7215 17.32 11.56C17.3187 11.3985 17.3492 11.2383 17.4098 11.0885C17.4704 10.9388 17.5599 10.8025 17.6732 10.6873C17.7865 10.5722 17.9213 10.4805 18.0701 10.4175C18.2188 10.3544 18.3785 10.3213 18.54 10.32C19.22 10.31 19.77 10.86 19.78 11.56C19.77 12.23 19.23 12.77 18.56 12.78ZM18.56 6.67C18.2338 6.67265 17.9199 6.54561 17.6873 6.31681C17.4548 6.08802 17.3227 5.77622 17.32 5.45C17.3173 5.12378 17.4444 4.80987 17.6732 4.57733C17.902 4.34478 18.2138 4.21265 18.54 4.21C18.8579 4.21997 19.1596 4.35261 19.3819 4.58011C19.6042 4.80762 19.7298 5.11233 19.7324 5.43039C19.735 5.74845 19.6143 6.05516 19.3958 6.28625C19.1772 6.51734 18.8777 6.65486 18.56 6.67ZM4.22 10H12.78C13.1036 10 13.4139 10.1285 13.6427 10.3573C13.8715 10.5861 14 10.8964 14 11.22V19.78C14 20.45 13.45 21 12.78 21H4.22C3.55 21 3 20.45 3 19.78V11.22C3 10.55 3.55 10 4.22 10ZM8.5 14.28C7.83 14.28 7.28 14.83 7.28 15.5C7.28 16.17 7.83 16.72 8.5 16.72C9.17 16.72 9.72 16.17 9.72 15.5C9.72 15.1764 9.59146 14.8661 9.36267 14.6373C9.13388 14.4085 8.82356 14.28 8.5 14.28ZM5.44 11.22C4.77 11.22 4.22 11.77 4.22 12.44C4.22 12.7636 4.34854 13.0739 4.57733 13.3027C4.80612 13.5315 5.11644 13.66 5.44 13.66C6.11 13.66 6.66 13.11 6.66 12.44C6.66 11.77 6.11 11.22 5.44 11.22ZM11.55 17.33C10.88 17.33 10.33 17.88 10.33 18.55C10.33 19.22 10.88 19.77 11.55 19.77C11.8736 19.77 12.1839 19.6415 12.4127 19.4127C12.6415 19.1839 12.77 18.8736 12.77 18.55C12.77 17.88 12.23 17.34 11.56 17.33H11.55Z" fill="black"/>
</svg>
