<svg width="24" height="24" viewBox="0 0 24 24" fill="none" xmlns="http://www.w3.org/2000/svg">
<g clip-path="url(#clip0_642_40)">
<path d="M16.7661 0.955649C16.6437 0.956087 16.5209 0.960618 16.3978 0.969243C13.43 1.17727 10.2511 3.68827 9.73608 7.07485L23.1562 7.64026V4.20263C22.777 3.83738 22.3868 3.48779 21.9866 3.16309C20.3652 1.84745 18.6024 0.948993 16.7661 0.955603L16.7661 0.955649ZM5.88516 1.91307C4.18889 1.91907 2.42545 2.61212 0.84375 4.06993V7.88087L8.91127 6.99892L8.89425 6.99638C9.07575 5.74538 9.56583 4.60777 10.2612 3.63348C8.99686 2.50238 7.47047 1.90754 5.88511 1.91317L5.88516 1.91307ZM11.0537 7.98404C9.90577 7.97195 5.90358 8.55292 5.91614 9.25332C5.9377 10.451 10.8114 11.6699 10.3564 11.7385C5.74467 12.4345 3.186 12.4419 1.65656 13.8375C-0.167531 15.5019 11.7339 17.6306 10.3013 18.0416C7.61991 18.8109 5.24728 19.7411 5.19188 22.186C5.18391 22.5385 5.22937 22.8603 5.31867 23.1563H7.89422C7.17127 22.189 6.76687 21.2502 7.20984 21.0042C7.69795 21.7123 8.26416 22.4632 8.9055 23.1563H11.9189C11.0061 22.6917 9.49397 21.7778 9.54731 20.8396C9.62231 19.5191 12.6584 18.6009 12.8231 18.6009C12.8231 18.6009 10.5362 19.8377 10.4856 20.9384C10.4496 21.7202 11.5317 22.672 12.1585 23.1563H14.5949C13.8236 22.5786 13.3538 21.9882 13.6374 21.6617C14.3659 22.1804 15.1897 22.7135 16.0668 23.1563H21.0691C18.4095 22.4069 16.2559 21.6249 15.668 20.666C15.19 19.8864 19.0599 19.3612 18.4996 16.9674C18.2282 15.8079 15.7696 15.0412 8.97356 14.0319C7.78444 13.8552 15.2716 13.1199 15.0588 11.3548C14.9346 10.3245 10.2172 10.0962 9.68784 9.62359C9.46537 9.42498 9.96267 8.23796 11.0536 7.98418L11.0537 7.98404ZM4.28555 14.4401C5.85005 14.4333 8.24109 15.4913 10.0418 16.1627L9.95789 16.7097C8.62645 16.2125 5.08734 14.9536 3.98405 14.4561C4.08061 14.4458 4.18125 14.4405 4.28555 14.4401ZM16.9528 16.9622C16.9576 16.9618 16.9574 16.9658 16.9521 16.974C17.1349 17.5451 15.9449 19.0389 14.0549 18.9822C14.7183 18.6471 16.8548 16.9664 16.9528 16.9621V16.9622Z" fill="black"/>
</g>
<defs>
<clipPath id="clip0_642_40">
<rect width="24" height="24" fill="white"/>
</clipPath>
</defs>
</svg>
