<svg width="24" height="24" viewBox="0 0 24 24" fill="none" xmlns="http://www.w3.org/2000/svg">
<g clip-path="url(#clip0_642_38)">
<path d="M12 7.71429H4.64055C4.41366 7.71424 4.19604 7.62424 4.0354 7.464L1.46398 4.89258C1.38415 4.81295 1.32082 4.71837 1.27761 4.61423C1.2344 4.5101 1.21216 4.39846 1.21216 4.28572C1.21216 4.17297 1.2344 4.06134 1.27761 3.9572C1.32082 3.85307 1.38415 3.75848 1.46398 3.67886L4.0354 1.10743C4.19604 0.9472 4.41366 0.857195 4.64055 0.857147H12V23.1429M12 12.8571H19.3594C19.5863 12.8571 19.8039 12.7671 19.9645 12.6069L22.536 10.0354C22.6158 9.95581 22.6791 9.86123 22.7223 9.75709C22.7655 9.65296 22.7878 9.54132 22.7878 9.42858C22.7878 9.31583 22.7655 9.2042 22.7223 9.10006C22.6791 8.99593 22.6158 8.90134 22.536 8.82172L19.9645 6.25029C19.8039 6.09006 19.5863 6.00005 19.3594 6H12M12 18H4.64055C4.41366 18 4.19604 17.91 4.0354 17.7497L1.46398 15.1783C1.38415 15.0987 1.32082 15.0041 1.27761 14.8999C1.2344 14.7958 1.21216 14.6842 1.21216 14.5714C1.21216 14.4587 1.2344 14.3471 1.27761 14.2429C1.32082 14.1388 1.38415 14.0442 1.46398 13.9646L4.0354 11.3931C4.19604 11.2329 4.41366 11.1429 4.64055 11.1429H12" stroke="black" stroke-linecap="round" stroke-linejoin="round"/>
</g>
<defs>
<clipPath id="clip0_642_38">
<rect width="24" height="24" fill="white"/>
</clipPath>
</defs>
</svg>
