<svg width="32" height="32" viewBox="0 0 32 32" fill="none" xmlns="http://www.w3.org/2000/svg">
<path d="M25.933 6.14C25.8603 5.95157 25.7323 5.78955 25.5657 5.67529C25.3992 5.56103 25.202 5.49988 25 5.49988C24.798 5.49988 24.6008 5.56103 24.4343 5.67529C24.2677 5.78955 24.1397 5.95157 24.067 6.14C23.297 8.14 21.833 8.995 20.5 8.995C19.167 8.995 17.702 8.14 16.933 6.142C16.8603 5.95357 16.7323 5.79156 16.5657 5.67729C16.3992 5.56303 16.202 5.50188 16 5.50188C15.798 5.50188 15.6008 5.56303 15.4343 5.67729C15.2677 5.79156 15.1397 5.95357 15.067 6.142C14.297 8.139 12.833 8.996 11.5 8.996C10.167 8.996 8.702 8.139 7.933 6.142C7.86032 5.95357 7.73228 5.79156 7.56574 5.67729C7.3992 5.56303 7.20197 5.50188 7 5.50188C6.79803 5.50188 6.6008 5.56303 6.43426 5.67729C6.26772 5.79156 6.13968 5.95357 6.067 6.142C5.27 8.214 3.81 9 3 9C2.73478 9 2.48043 9.10536 2.29289 9.29289C2.10536 9.48043 2 9.73479 2 10C2 10.2652 2.10536 10.5196 2.29289 10.7071C2.48043 10.8946 2.73478 11 3 11C4.41 11 5.92 10.13 7.007 8.6C8.147 10.156 9.787 10.996 11.5 10.996C13.217 10.996 14.859 10.153 16 8.59C17.141 10.153 18.783 10.996 20.5 10.995C22.214 10.995 23.853 10.155 24.994 8.598C26.081 10.126 27.591 10.995 29 10.995C29.2652 10.995 29.5196 10.8896 29.7071 10.7021C29.8946 10.5146 30 10.2602 30 9.995C30 9.72978 29.8946 9.47543 29.7071 9.28789C29.5196 9.10036 29.2652 8.995 29 8.995C28.189 8.995 26.73 8.209 25.933 6.14ZM25 13.5C25.202 13.5 25.3992 13.5611 25.5657 13.6754C25.7323 13.7896 25.8603 13.9516 25.933 14.14C26.73 16.21 28.189 16.995 29 16.995C29.2652 16.995 29.5196 17.1004 29.7071 17.2879C29.8946 17.4754 30 17.7298 30 17.995C30 18.2602 29.8946 18.5146 29.7071 18.7021C29.5196 18.8896 29.2652 18.995 29 18.995C27.591 18.995 26.081 18.126 24.994 16.598C23.853 18.155 22.214 18.995 20.5 18.995C18.783 18.995 17.141 18.153 16 16.59C14.859 18.153 13.217 18.996 11.5 18.996C9.786 18.996 8.148 18.156 7.007 16.6C5.92 18.13 4.409 19 3 19C2.73478 19 2.48043 18.8946 2.29289 18.7071C2.10536 18.5196 2 18.2652 2 18C2 17.7348 2.10536 17.4804 2.29289 17.2929C2.48043 17.1054 2.73478 17 3 17C3.81 17 5.27 16.215 6.067 14.142C6.13968 13.9536 6.26772 13.7916 6.43426 13.6773C6.6008 13.563 6.79803 13.5019 7 13.5019C7.20197 13.5019 7.3992 13.563 7.56574 13.6773C7.73228 13.7916 7.86032 13.9536 7.933 14.142C8.703 16.14 10.167 16.996 11.5 16.996C12.833 16.996 14.298 16.14 15.067 14.142C15.1397 13.9536 15.2677 13.7916 15.4343 13.6773C15.6008 13.563 15.798 13.5019 16 13.5019C16.202 13.5019 16.3992 13.563 16.5657 13.6773C16.7323 13.7916 16.8603 13.9536 16.933 14.142C17.703 16.14 19.167 16.996 20.5 16.995C21.833 16.994 23.298 16.139 24.067 14.141C24.1395 13.9524 24.2675 13.7902 24.4341 13.6758C24.6006 13.5614 24.7979 13.5001 25 13.5ZM25 21.5C25.202 21.5 25.3992 21.5611 25.5657 21.6754C25.7323 21.7896 25.8603 21.9516 25.933 22.14C26.73 24.21 28.189 24.995 29 24.995C29.2652 24.995 29.5196 25.1004 29.7071 25.2879C29.8946 25.4754 30 25.7298 30 25.995C30 26.2602 29.8946 26.5146 29.7071 26.7021C29.5196 26.8896 29.2652 26.995 29 26.995C27.591 26.995 26.081 26.126 24.994 24.598C23.853 26.155 22.214 26.995 20.5 26.995C18.783 26.995 17.141 26.153 16 24.59C14.859 26.153 13.217 26.996 11.5 26.996C9.786 26.996 8.148 26.156 7.007 24.6C5.92 26.13 4.409 27 3 27C2.73478 27 2.48043 26.8946 2.29289 26.7071C2.10536 26.5196 2 26.2652 2 26C2 25.7348 2.10536 25.4804 2.29289 25.2929C2.48043 25.1054 2.73478 25 3 25C3.81 25 5.27 24.215 6.067 22.142C6.13968 21.9536 6.26772 21.7916 6.43426 21.6773C6.6008 21.563 6.79803 21.5019 7 21.5019C7.20197 21.5019 7.3992 21.563 7.56574 21.6773C7.73228 21.7916 7.86032 21.9536 7.933 22.142C8.703 24.14 10.167 24.996 11.5 24.996C12.833 24.996 14.298 24.14 15.067 22.142C15.1397 21.9536 15.2677 21.7916 15.4343 21.6773C15.6008 21.563 15.798 21.5019 16 21.5019C16.202 21.5019 16.3992 21.563 16.5657 21.6773C16.7323 21.7916 16.8603 21.9536 16.933 22.142C17.703 24.14 19.167 24.996 20.5 24.995C21.833 24.994 23.298 24.139 24.067 22.141C24.1395 21.9524 24.2675 21.7902 24.4341 21.6758C24.6006 21.5614 24.7979 21.5001 25 21.5Z" fill="black"/>
</svg>
