<svg width="24" height="24" viewBox="0 0 24 24" fill="none" xmlns="http://www.w3.org/2000/svg">
<path d="M1.17188 2.67188V15.3281H4.82812V2.67188H1.17188ZM5.67188 3.42188V14.5781H9.32812V3.42188H5.67188ZM3 3.75C3.19891 3.75 3.38968 3.82902 3.53033 3.96967C3.67098 4.11032 3.75 4.30109 3.75 4.5C3.75 4.69891 3.67098 4.88968 3.53033 5.03033C3.38968 5.17098 3.19891 5.25 3 5.25C2.80109 5.25 2.61032 5.17098 2.46967 5.03033C2.32902 4.88968 2.25 4.69891 2.25 4.5C2.25 4.30109 2.32902 4.11032 2.46967 3.96967C2.61032 3.82902 2.80109 3.75 3 3.75ZM10.1719 4.17188V13.8281H13.8281V4.17188H10.1719ZM7.5 4.5C7.69891 4.5 7.88968 4.57902 8.03033 4.71967C8.17098 4.86032 8.25 5.05109 8.25 5.25C8.25 5.44891 8.17098 5.63968 8.03033 5.78033C7.88968 5.92098 7.69891 6 7.5 6C7.30109 6 7.11032 5.92098 6.96967 5.78033C6.82902 5.63968 6.75 5.44891 6.75 5.25C6.75 5.05109 6.82902 4.86032 6.96967 4.71967C7.11032 4.57902 7.30109 4.5 7.5 4.5ZM14.6719 4.92188V13.0781H18.3281V4.92188H14.6719ZM12 5.25C12.1989 5.25 12.3897 5.32902 12.5303 5.46967C12.671 5.61032 12.75 5.80109 12.75 6C12.75 6.19891 12.671 6.38968 12.5303 6.53033C12.3897 6.67098 12.1989 6.75 12 6.75C11.8011 6.75 11.6103 6.67098 11.4697 6.53033C11.329 6.38968 11.25 6.19891 11.25 6C11.25 5.80109 11.329 5.61032 11.4697 5.46967C11.6103 5.32902 11.8011 5.25 12 5.25ZM19.1719 5.67188V12.3281H22.8281V5.67188H19.1719ZM16.5 6C16.6989 6 16.8897 6.07902 17.0303 6.21967C17.171 6.36032 17.25 6.55109 17.25 6.75C17.25 6.94891 17.171 7.13968 17.0303 7.28033C16.8897 7.42098 16.6989 7.5 16.5 7.5C16.3011 7.5 16.1103 7.42098 15.9697 7.28033C15.829 7.13968 15.75 6.94891 15.75 6.75C15.75 6.55109 15.829 6.36032 15.9697 6.21967C16.1103 6.07902 16.3011 6 16.5 6ZM21 6.75C21.1989 6.75 21.3897 6.82902 21.5303 6.96967C21.671 7.11032 21.75 7.30109 21.75 7.5C21.75 7.69891 21.671 7.88968 21.5303 8.03033C21.3897 8.17098 21.1989 8.25 21 8.25C20.8011 8.25 20.6103 8.17098 20.4697 8.03033C20.329 7.88968 20.25 7.69891 20.25 7.5C20.25 7.30109 20.329 7.11032 20.4697 6.96967C20.6103 6.82902 20.8011 6.75 21 6.75ZM21 9.75C21.1989 9.75 21.3897 9.82902 21.5303 9.96967C21.671 10.1103 21.75 10.3011 21.75 10.5C21.75 10.6989 21.671 10.8897 21.5303 11.0303C21.3897 11.171 21.1989 11.25 21 11.25C20.8011 11.25 20.6103 11.171 20.4697 11.0303C20.329 10.8897 20.25 10.6989 20.25 10.5C20.25 10.3011 20.329 10.1103 20.4697 9.96967C20.6103 9.82902 20.8011 9.75 21 9.75ZM16.5 10.5C16.6989 10.5 16.8897 10.579 17.0303 10.7197C17.171 10.8603 17.25 11.0511 17.25 11.25C17.25 11.4489 17.171 11.6397 17.0303 11.7803C16.8897 11.921 16.6989 12 16.5 12C16.3011 12 16.1103 11.921 15.9697 11.7803C15.829 11.6397 15.75 11.4489 15.75 11.25C15.75 11.0511 15.829 10.8603 15.9697 10.7197C16.1103 10.579 16.3011 10.5 16.5 10.5ZM12 11.25C12.1989 11.25 12.3897 11.329 12.5303 11.4697C12.671 11.6103 12.75 11.8011 12.75 12C12.75 12.1989 12.671 12.3897 12.5303 12.5303C12.3897 12.671 12.1989 12.75 12 12.75C11.8011 12.75 11.6103 12.671 11.4697 12.5303C11.329 12.3897 11.25 12.1989 11.25 12C11.25 11.8011 11.329 11.6103 11.4697 11.4697C11.6103 11.329 11.8011 11.25 12 11.25ZM7.5 12C7.69891 12 7.88968 12.079 8.03033 12.2197C8.17098 12.3603 8.25 12.5511 8.25 12.75C8.25 12.9489 8.17098 13.1397 8.03033 13.2803C7.88968 13.421 7.69891 13.5 7.5 13.5C7.30109 13.5 7.11032 13.421 6.96967 13.2803C6.82902 13.1397 6.75 12.9489 6.75 12.75C6.75 12.5511 6.82902 12.3603 6.96967 12.2197C7.11032 12.079 7.30109 12 7.5 12ZM3 12.75C3.19891 12.75 3.38968 12.829 3.53033 12.9697C3.67098 13.1103 3.75 13.3011 3.75 13.5C3.75 13.6989 3.67098 13.8897 3.53033 14.0303C3.38968 14.171 3.19891 14.25 3 14.25C2.80109 14.25 2.61032 14.171 2.46967 14.0303C2.32902 13.8897 2.25 13.6989 2.25 13.5C2.25 13.3011 2.32902 13.1103 2.46967 12.9697C2.61032 12.829 2.80109 12.75 3 12.75ZM19.5 15.4219C18.8995 15.4219 18.4219 15.8995 18.4219 16.5C18.4219 17.1005 18.8995 17.5781 19.5 17.5781C20.1005 17.5781 20.5781 17.1005 20.5781 16.5C20.5781 15.8995 20.1005 15.4219 19.5 15.4219ZM17.5792 16.5453L9.97411 18.4466L3.05236 17.5814L2.94764 18.4186L7.70686 19.0135L1.39758 20.5908L1.60233 21.4092L10.0258 19.3034L19.0873 20.436C19.0593 20.1527 19.0953 19.8666 19.1926 19.599L12.2932 18.7365L17.7852 17.3635C17.6561 17.1096 17.5857 16.83 17.5792 16.5453H17.5792ZM21 19.1719C20.3995 19.1719 19.9219 19.6495 19.9219 20.25C19.9219 20.8505 20.3995 21.3281 21 21.3281C21.6005 21.3281 22.0781 20.8505 22.0781 20.25C22.0781 19.6495 21.6005 19.1719 21 19.1719Z" fill="black"/>
</svg>
